HIERARCHY
ROOT Hips
{
  OFFSET 0 0 0
  CHANNELS 6 Xposition Yposition Zposition Zrotation Xrotation Yrotation
  JOINT Spine
  {
    OFFSET 0 10.1816 0.1315
    CHANNELS 6 Xposition Yposition Zposition Zrotation Xrotation Yrotation
    JOINT Spine1
    {
      OFFSET 0 10.0835 -1.0008
      CHANNELS 6 Xposition Yposition Zposition Zrotation Xrotation Yrotation
      JOINT Spine2
      {
        OFFSET 0 9.1 -1.3734
        CHANNELS 6 Xposition Yposition Zposition Zrotation Xrotation Yrotation
        JOINT Neck
        {
          OFFSET 0 16.6717 -2.5162
          CHANNELS 6 Xposition Yposition Zposition Zrotation Xrotation Yrotation
          JOINT Head
          {
            OFFSET 0 9.6179 1.685
            CHANNELS 6 Xposition Yposition Zposition Zrotation Xrotation Yrotation
            End Site
            {
              OFFSET 0 17.8152 2.585
            }
          }
        }
        JOINT LeftShoulder
        {
          OFFSET 4.5704 10.946 -2.628
          CHANNELS 6 Xposition Yposition Zposition Zrotation Xrotation Yrotation
          JOINT LeftArm
          {
            OFFSET 10.5924 -0.5246 -2.2321
            CHANNELS 6 Xposition Yposition Zposition Zrotation Xrotation Yrotation
            JOINT LeftForeArm
            {
              OFFSET 27.8415 -0.0001 0
              CHANNELS 6 Xposition Yposition Zposition Zrotation Xrotation Yrotation
              JOINT LeftHand
              {
                OFFSET 28.3288 0 0
                CHANNELS 6 Xposition Yposition Zposition Zrotation Xrotation Yrotation
                End Site
                {
                  OFFSET 0 0 0
                }
              }
            }
          }
        }
        JOINT RightShoulder
        {
          OFFSET -4.57 10.9462 -2.628
          CHANNELS 6 Xposition Yposition Zposition Zrotation Xrotation Yrotation
          JOINT RightArm
          {
            OFFSET -10.5928 -0.5248 -2.2321
            CHANNELS 6 Xposition Yposition Zposition Zrotation Xrotation Yrotation
            JOINT RightForeArm
            {
              OFFSET -27.8415 0 0
              CHANNELS 6 Xposition Yposition Zposition Zrotation Xrotation Yrotation
              JOINT RightHand
              {
                OFFSET -28.3288 0 0.0001
                CHANNELS 6 Xposition Yposition Zposition Zrotation Xrotation Yrotation
                End Site
                {
                  OFFSET 0 0 0
                }
              }
            }
          }
        }
      }
    }
  }
  JOINT LeftUpLeg
  {
    OFFSET 8.2078 -6.7517 -1.5996
    CHANNELS 6 Xposition Yposition Zposition Zrotation Xrotation Yrotation
    JOINT LeftLeg
    {
      OFFSET 0 -44.3705 0.2846
      CHANNELS 6 Xposition Yposition Zposition Zrotation Xrotation Yrotation
      JOINT LeftFoot
      {
        OFFSET 0 -44.4279 -2.9822
        CHANNELS 6 Xposition Yposition Zposition Zrotation Xrotation Yrotation
        JOINT LeftToeBase
        {
          OFFSET 0 -8.7287 10.7106
          CHANNELS 6 Xposition Yposition Zposition Zrotation Xrotation Yrotation
          End Site
          {
            OFFSET 0 -0.0007 9.2781
          }
        }
      }
    }
  }
  JOINT RightUpLeg
  {
    OFFSET -8.2078 -6.7517 -1.5996
    CHANNELS 6 Xposition Yposition Zposition Zrotation Xrotation Yrotation
    JOINT RightLeg
    {
      OFFSET 0 -44.3705 0.2862
      CHANNELS 6 Xposition Yposition Zposition Zrotation Xrotation Yrotation
      JOINT RightFoot
      {
        OFFSET 0 -44.4277 -2.9838
        CHANNELS 6 Xposition Yposition Zposition Zrotation Xrotation Yrotation
        JOINT RightToeBase
        {
          OFFSET 0 -8.7287 10.7106
          CHANNELS 6 Xposition Yposition Zposition Zrotation Xrotation Yrotation
          End Site
          {
            OFFSET 0 -0.0007 9.2781
          }
        }
      }
    }
  }
}
MOTION
Frames:	5
Frame Time:	0.0333333
73.8932 77.1004 104.929 -19.5846 1.82459 54.7463 0 10.1816 0.1315 -13.3681 4.01969 -11.0632 -1.42109e-14 10.0835 -1.0008 -1.61193 0.249734 -3.34136 7.10543e-15 9.1 -1.3734 -1.58862 0.323677 -3.33128 0 16.6717 -2.5162 1.5248 1.81992 3.98479 7.10543e-15 9.6179 1.685 24.021 10.2253 -40.2655 4.5704 10.946 -2.628 -11.4226 5.55005 -10.8027 10.5924 -0.5246 -2.2321 12.7054 -55.362 -5.49736 27.8415 -0.0001 0 -3.35711 -10.7876 -34.4834 28.3288 7.10543e-15 1.42109e-14 32.3803 -12.5016 -35.6598 -4.57 10.9462 -2.628 -3.94342 0.11545 -7.31563 -10.5928 -0.5248 -2.2321 -13.6113 -44.0938 -25.1559 -27.8415 -1.42109e-14 0 6.14228 -13.9227 47.443 -28.3288 0 0.0001 53.8986 68.1846 -44.4361 8.2078 -6.7517 -1.5996 66.7033 -72.706 81.135 0 -44.3705 0.2846 1.78505 71.8915 -0.47465 0 -44.4279 -2.9822 17.3661 -8.83499 30.8374 0 -8.7287 10.7106 -2.1688e-06 0.407713 -5.58941e-05 -8.2078 -6.7517 -1.5996 -3.66684 -29.6996 -1.33807 0 -44.3705 0.2862 -131.014 80.6084 139.275 -1.42109e-14 -44.4277 -2.9838 24.3076 -10.0609 6.88004 0 -8.7287 10.7106 -9.58416e-07 39.7123 -8.3558e-06 
77.3591 77.6211 108.823 -21.0424 2.42839 61.0293 1.42109e-14 10.1816 0.1315 -15.2155 2.76552 -8.0811 0 10.0835 -1.0008 -2.03599 0.520091 -2.4364 0 9.1 -1.3734 -1.99845 0.582291 -2.43349 0 16.6717 -2.5162 0.944872 1.65072 1.78659 0 9.6179 1.685 22.7903 6.37281 -44.5545 4.5704 10.946 -2.628 -17.0173 5.01833 -9.16318 10.5924 -0.5246 -2.2321 18.1612 -44.895 9.43733 27.8415 -0.0001 0 -3.1886 -10.5424 -33.573 28.3288 -3.55271e-15 -2.84217e-14 36.717 -15.6815 -34.8473 -4.57 10.9462 -2.628 -9.81203 0.278782 -2.55 -10.5928 -0.5248 -2.2321 -15.2641 -49.3332 -19.893 -27.8415 2.84217e-14 0 6.51255 -14.2438 48.9646 -28.3288 7.10543e-15 0.0001 68.3953 69.8626 -56.6016 8.2078 -6.7517 -1.5996 58.4139 -77.0526 73.1771 0 -44.3705 0.2846 11.2468 74.0109 -10.409 0 -44.4279 -2.9822 15.0173 -12.6088 31.0058 0 -8.7287 10.7106 3.10601e-07 -0.353592 4.87523e-05 -8.2078 -6.7517 -1.5996 -5.74792 -43.5067 5.75773 -1.42109e-14 -44.3705 0.2862 -148.202 76.6362 154.019 -1.42109e-14 -44.4277 -2.9838 13.9924 -15.4599 6.93381 1.42109e-14 -8.7287 10.7106 -1.62831e-05 25.6377 2.47e-05 
80.901 78.4118 112.84 -22.2894 1.21179 67.4368 0 10.1816 0.1315 -15.411 2.46356 -4.7896 0 10.0835 -1.0008 -2.10123 0.908149 -1.50817 -1.42109e-14 9.1 -1.3734 -2.07662 0.945606 -1.51906 0 16.6717 -2.5162 0.570903 1.71082 0.339291 0 9.6179 1.685 21.2346 4.47076 -47.3706 4.5704 10.946 -2.628 -22.1437 3.97206 -6.75857 10.5924 -0.5246 -2.2321 18.4368 -32.961 20.7497 27.8415 -0.0001 0 -2.98581 -10.2353 -32.4484 28.3288 7.10543e-15 -2.84217e-14 38.2989 -18.951 -33.4931 -4.57 10.9462 -2.628 -15.0934 0.372464 3.7392 -10.5928 -0.5248 -2.2321 -13.3924 -54.4597 -9.59574 -27.8415 7.10543e-15 1.42109e-14 7.26492 -14.8449 51.9598 -28.3288 7.10543e-15 0.0001 83.5294 70.5146 -69.4534 8.2078 -6.7517 -1.5996 43.2613 -79.0319 57.9203 1.42109e-14 -44.3705 0.2846 23.3186 74.965 -23.7969 0 -44.4279 -2.9822 13.1569 -16.4163 30.3359 0 -8.7287 10.7106 -6.97009e-06 -0.54221 7.89264e-05 -8.2078 -6.7517 -1.5996 -5.13441 -50.4968 11.8322 0 -44.3705 0.2862 -142.088 78.0726 148.181 0 -44.4277 -2.9838 -1.84634 -18.4855 9.94006 0 -8.7287 10.7106 -8.66181e-06 9.41398 1.08584e-05 
84.4356 79.6324 116.895 -22.5824 -1.60248 75.4819 -1.42109e-14 10.1816 0.1315 -13.6503 3.18656 -0.789783 -1.42109e-14 10.0835 -1.0008 -1.86761 1.33304 -0.452114 0 9.1 -1.3734 -1.89365 1.34321 -0.475322 -2.84217e-14 16.6717 -2.5162 0.600129 1.9155 0.303452 0 9.6179 1.685 19.2204 4.95158 -48.7355 4.5704 10.946 -2.628 -25.1501 2.63517 -3.69148 10.5924 -0.5246 -2.2321 14.6579 -22.8776 28.7663 27.8415 -0.0001 1.06581e-14 -2.67744 -9.74093 -30.6707 28.3288 1.42109e-14 0 36.2631 -22.0842 -32.4369 -4.57 10.9462 -2.628 -17.239 0.609324 9.97337 -10.5928 -0.5248 -2.2321 -5.12233 -55.5511 8.85123 -27.8415 1.42109e-14 7.10543e-15 8.13608 -15.4643 55.2912 -28.3288 -3.55271e-15 0.0001 97.3048 70.386 -81.0874 8.2078 -6.7517 -1.5996 24.4052 -77.9467 38.561 0 -44.3705 0.2846 31.6358 74.516 -33.3095 0 -44.4279 -2.9822 11.7934 -20.0693 26.5211 -2.84217e-14 -8.7287 10.7106 -3.26665e-06 -0.130227 -3.79131e-05 -8.2078 -6.7517 -1.5996 -3.77716 -52.1215 15.2753 0 -44.3705 0.2862 -115.661 81.3543 118.03 0 -44.4277 -2.9838 -11.1188 -21.9919 17.3798 0 -8.7287 10.7106 4.39067e-06 -4.38103 -2.54646e-05 
87.8396 81.4297 120.867 -21.8914 -5.17041 87.1449 0 10.1816 0.1315 -10.0874 4.37712 3.86712 2.84217e-14 10.0835 -1.0008 -1.4723 1.64954 0.812437 0 9.1 -1.3734 -1.55503 1.6418 0.793369 0 16.6717 -2.5162 1.19883 2.29407 2.76873 -2.84217e-14 9.6179 1.685 15.5934 7.82446 -47.7494 4.5704 10.946 -2.628 -24.6048 1.35974 -0.328485 10.5924 -0.5246 -2.2321 9.90407 -17.5548 33.3967 27.8415 -0.0001 7.10543e-15 -2.26007 -9.0098 -28.109 28.3288 -7.10543e-15 3.55271e-15 29.7384 -24.7337 -32.0888 -4.57 10.9462 -2.628 -13.4763 0.860387 12.0029 -10.5928 -0.5248 -2.2321 5.77445 -49.3764 32.5022 -27.8415 1.42109e-14 0 7.7631 -15.2085 53.881 -28.3288 1.42109e-14 0.0001 108.365 70.0548 -90.2836 8.2078 -6.7517 -1.5996 11.0427 -74.6145 24.0488 -2.84217e-14 -44.3705 0.2846 29.4743 73.0092 -31.5468 0 -44.4279 -2.9822 10.3745 -22.6745 16.9541 2.84217e-14 -8.7287 10.7106 -3.84401e-06 0.649989 -3.59242e-05 -8.2078 -6.7517 -1.5996 -6.0784 -50.2051 14.3482 -2.84217e-14 -44.3705 0.2862 -54.5276 79.6555 56.8061 0 -44.4277 -2.9838 -8.02418 -22.5126 25.8743 -2.84217e-14 -8.7287 10.7106 -5.61484e-06 -14.4493 -1.58089e-05 
